<?xml version="1.0" encoding="utf-8"?>
<!-- Generator: Adobe Illustrator 25.0.1, SVG Export Plug-In . SVG Version: 6.00 Build 0)  -->
<svg version="1.1" id="Layer_1" xmlns="http://www.w3.org/2000/svg" xmlns:xlink="http://www.w3.org/1999/xlink" x="0px" y="0px"
	 viewBox="0 0 1017.3 700" style="enable-background:new 0 0 1017.3 700;" xml:space="preserve">
<style type="text/css">
	.st0{fill:none;}
	.st1{fill:#FFFFFF;stroke:#46BA00;stroke-width:1.0068;}
	.st2{display:none;}
	.st3{display:inline;fill:url(#knifeFace_F_1_);}
	.st4{display:inline;fill:url(#knifeFace_R_1_);}
	.st5{display:inline;fill:url(#knifeFace_RR_1_);}
	.st6{display:inline;fill:url(#knifeFace_L_1_);}
	.st7{display:inline;fill:url(#knifeFace_LL_1_);}
	.st8{display:inline;fill:url(#knifeFace_T_1_);}
	.st9{display:inline;fill:url(#knifeFace_TT_1_);}
	.st10{display:inline;fill:url(#knifeFace_TL_1_);}
	.st11{display:inline;fill:url(#knifeFace_TR_1_);}
	.st12{display:inline;fill:url(#knifeFace_B_1_);}
	.st13{display:inline;fill:url(#knifeFace_BB_1_);}
	.st14{display:inline;fill:url(#knifeFace_BL_1_);}
	.st15{display:inline;fill:url(#knifeFace_BR_1_);}
	.st16{fill:none;stroke:#2028B0;stroke-width:1.0068;}
	.st17{fill:none;stroke:#FA0000;stroke-width:1.0068;stroke-dasharray:0.7551,0.5034;}
	.st18{stroke:#B888F1;stroke-width:1.0068;stroke-linecap:round;}
	.st19{display:none;fill:#B888F1;}
	.st20{font-family:'ArialMT';}
	.st21{font-size:16.1084px;}
	.st22{font-family:'MyriadPro-Regular';}
	.st23{font-size:12px;}
</style>
<pattern  x="33.4" y="677" width="72" height="72" patternUnits="userSpaceOnUse" id="scienceImagePattern_traditional" viewBox="0 -72 72 72" style="overflow:visible;">
	<g>
		<rect y="-72" class="st0" width="72" height="72"/>
		<rect x="36" y="-36" width="36" height="36"/>
		<rect y="-72" width="36" height="36"/>
	</g>
</pattern>
<path class="st1" d="M30.4,213.5h187L370,239.2l-29-173.3L383.4,47V34c0-9.3,4.7-14,14-14h242c11.3,0,17,4.7,17,14v13l42.5,18.9
	l-29,173.4l153.1-25.8h137V332h19c5.3,0,8,2.7,8,8v20c0,5.3-2.7,8-8,8h-19v118.5h-137l-153.1-25.8l29,173.4L656.4,653v13
	c0,9.3-4.7,14-14,14h-242c-11.3,0-17-4.7-17-14v-13l-42.5-18.9l29-173.3l-152.6,25.7h-187v-267V213.5z"/>
<g class="st2">
	<pattern  id="knifeFace_F_1_" xlink:href="#scienceImagePattern_traditional" patternTransform="matrix(1 0 0 -1 -54 -15892.373)">
	</pattern>
	<path id="knifeFace_F" class="st3" d="M419.9,250h200v200h-200V250z"/>
	<pattern  id="knifeFace_R_1_" xlink:href="#scienceImagePattern_traditional" patternTransform="matrix(1 0 0 -1 -54 -15892.373)">
	</pattern>
	<path id="knifeFace_R" class="st4" d="M619.9,250l203-33.5v267l-203-33.5V250z"/>
	
		<pattern  id="knifeFace_RR_1_" xlink:href="#scienceImagePattern_traditional" patternTransform="matrix(1 0 0 -1 -54 -15892.373)">
	</pattern>
	<path id="knifeFace_RR" class="st5" d="M822.9,216.5h134V335h22c3.3,0,5,1.7,5,5v20c0,3.3-1.7,5-5,5h-22v118.5h-134V216.5z"/>
	<pattern  id="knifeFace_L_1_" xlink:href="#scienceImagePattern_traditional" patternTransform="matrix(1 0 0 -1 -54 -15892.373)">
	</pattern>
	<path id="knifeFace_L" class="st6" d="M419.9,250l-202.5-33.5v267L419.9,450V250z"/>
	
		<pattern  id="knifeFace_LL_1_" xlink:href="#scienceImagePattern_traditional" patternTransform="matrix(1 0 0 -1 -54 -15892.373)">
	</pattern>
	<path id="knifeFace_LL" class="st7" d="M217.4,216.5h-184v267h184V216.5z"/>
	<pattern  id="knifeFace_T_1_" xlink:href="#scienceImagePattern_traditional" patternTransform="matrix(1 0 0 -1 -54 -15892.373)">
	</pattern>
	<path id="knifeFace_T" class="st8" d="M419.9,250L386.4,50h267l-33.5,200H419.9z"/>
	
		<pattern  id="knifeFace_TT_1_" xlink:href="#scienceImagePattern_traditional" patternTransform="matrix(1 0 0 -1 -54 -15892.373)">
	</pattern>
	<path id="knifeFace_TT" class="st9" d="M386.4,50V37c0-9.3,4.7-14,14-14h239c9.3,0,14,4.7,14,14v13H386.4z"/>
	
		<pattern  id="knifeFace_TL_1_" xlink:href="#scienceImagePattern_traditional" patternTransform="matrix(1 0 0 -1 -54 -15892.373)">
	</pattern>
	<path id="knifeFace_TL" class="st10" d="M386.4,50l-42.5,18.9l29,173.3l46.9,7.8L386.4,50z"/>
	
		<pattern  id="knifeFace_TR_1_" xlink:href="#scienceImagePattern_traditional" patternTransform="matrix(1 0 0 -1 -54 -15892.373)">
	</pattern>
	<path id="knifeFace_TR" class="st11" d="M653.4,50l42.5,18.9l-29,173.4l-46.9,7.7L653.4,50z"/>
	<pattern  id="knifeFace_B_1_" xlink:href="#scienceImagePattern_traditional" patternTransform="matrix(1 0 0 -1 -54 -15892.373)">
	</pattern>
	<path id="knifeFace_B" class="st12" d="M419.9,450l-33.5,200h267l-33.5-200H419.9z"/>
	
		<pattern  id="knifeFace_BB_1_" xlink:href="#scienceImagePattern_traditional" patternTransform="matrix(1 0 0 -1 -54 -15892.373)">
	</pattern>
	<path id="knifeFace_BB" class="st13" d="M386.4,650v13c0,9.3,4.7,14,14,14h239c9.3,0,14-4.7,14-14v-13H386.4z"/>
	
		<pattern  id="knifeFace_BL_1_" xlink:href="#scienceImagePattern_traditional" patternTransform="matrix(1 0 0 -1 -54 -15892.373)">
	</pattern>
	<path id="knifeFace_BL" class="st14" d="M386.4,650l-42.5-18.9l29-173.3l46.9-7.8L386.4,650z"/>
	
		<pattern  id="knifeFace_BR_1_" xlink:href="#scienceImagePattern_traditional" patternTransform="matrix(1 0 0 -1 -54 -15892.373)">
	</pattern>
	<path id="knifeFace_BR" class="st15" d="M653.4,650l42.5-18.9l-29-173.4l-46.9-7.7L653.4,650z"/>
</g>
<g>
	<path class="st16" d="M33.4,216.5h184L373,242.2l-29-173.3L386.4,50V37c0-9.3,4.7-14,14-14h239c9.3,0,14,4.7,14,14v13l42.5,18.9
		l-29,173.4l156.1-25.8h134V335h22c3.3,0,5,1.7,5,5v20c0,3.3-1.7,5-5,5h-22v118.5h-134l-156.1-25.8l29,173.4L653.4,650v13
		c0,9.3-4.7,14-14,14h-239c-9.3,0-14-4.7-14-14v-13l-42.5-18.9l29-173.3l-155.6,25.7h-184V216.5z M419.9,250l-46.9-7.8 M619.9,250
		l46.9-7.7 M619.9,450l46.9,7.7 M419.9,450l-46.9,7.8 M85.3,333.1l-1.4,1.4v31l1.4,1.4"/>
</g>
<g>
	<g>
		<line class="st17" x1="419.9" y1="250" x2="619.9" y2="250"/>
	</g>
	<g>
		<line class="st17" x1="619.9" y1="250" x2="619.9" y2="450"/>
	</g>
	<g>
		<line class="st17" x1="619.9" y1="450" x2="419.9" y2="450"/>
	</g>
	<g>
		<line class="st17" x1="419.9" y1="450" x2="419.9" y2="250"/>
	</g>
	<g>
		<line class="st17" x1="822.9" y1="216.5" x2="822.9" y2="483.5"/>
	</g>
	<g>
		<line class="st17" x1="217.4" y1="216.5" x2="217.4" y2="483.5"/>
	</g>
	<g>
		<line class="st17" x1="419.9" y1="250" x2="386.4" y2="50"/>
	</g>
	<g>
		<line class="st17" x1="386.4" y1="50" x2="653.4" y2="50"/>
	</g>
	<g>
		<line class="st17" x1="653.4" y1="50" x2="619.9" y2="250"/>
	</g>
	<g>
		<line class="st17" x1="419.9" y1="450" x2="386.4" y2="650"/>
	</g>
	<g>
		<line class="st17" x1="386.4" y1="650" x2="653.4" y2="650"/>
	</g>
	<g>
		<line class="st17" x1="653.4" y1="650" x2="619.9" y2="450"/>
	</g>
</g>
<g>
	<g>
		<path class="st18" d="M419.9,403.4v-6.9 M419.9,400l2.8,2.8 M419.9,400l2.8-2.8 M419.9,400h200 M619.9,400l-2.8,2.8 M619.9,400
			l-2.8-2.8 M619.9,403.4v-6.9"/>
		<path class="st19" d="M492.9,403.7h53.9c2.2,0,4,1.8,4,4v15.1c0,2.2-1.8,4-4,4h-53.9c-2.2,0-4-1.8-4-4v-15.1
			C488.9,405.5,490.7,403.7,492.9,403.7z"/>
		<text transform="matrix(1 0 0 1 490.8139 422.8175)" class="st20 st21">200 mm</text>
	</g>
	<g>
		<path class="st18" d="M466.5,50h6.9 M469.9,50l-2.8,2.8 M469.9,50l2.8,2.8 M469.9,50v200 M469.9,250l-2.8-2.8 M469.9,250l2.8-2.8
			 M466.5,250h6.9"/>
		<path class="st19" d="M465.8,135.4h53.9c2.2,0,4,1.8,4,4v15.1c0,2.2-1.8,4-4,4h-53.9c-2.2,0-4-1.8-4-4v-15.1
			C461.7,137.2,463.5,135.4,465.8,135.4z"/>
		<text transform="matrix(1 0 0 1 463.6447 154.5529)" class="st20 st21">200 mm</text>
	</g>
	<g>
		<path class="st18" d="M566.5,250h6.9 M569.9,250l-2.8,2.8 M569.9,250l2.8,2.8 M569.9,250v200 M569.9,450l-2.8-2.8 M569.9,450
			l2.8-2.8 M566.5,450h6.9"/>
		<path class="st19" d="M565.8,335.4h53.9c2.2,0,4,1.8,4,4v15.1c0,2.2-1.8,4-4,4h-53.9c-2.2,0-4-1.8-4-4v-15.1
			C561.7,337.2,563.5,335.4,565.8,335.4z"/>
		<text transform="matrix(1 0 0 1 563.6446 354.5529)" class="st20 st21">200 mm</text>
	</g>
</g>
<g>
	<line class="st1" x1="847.8" y1="23" x2="923.6" y2="23"/>
	<line class="st17" x1="847.8" y1="44.1" x2="923.6" y2="44.1"/>
	<line class="st16" x1="847.8" y1="65.3" x2="923.6" y2="65.3"/>
	<text transform="matrix(1 0 0 1 937.741 26.9011)" class="st22 st23">Bleed</text>
	<text transform="matrix(1 0 0 1 937.741 47.1305)" class="st22 st23">Crease</text>
	<text transform="matrix(1 0 0 1 937.741 68.2743)" class="st22 st23">Trim</text>
</g>
</svg>
