<svg data-v-96261788="" x="0" y="0" width="1px" height="1px" overflow="visible" viewBox="0 0 1 1"><path data-v-96261788="" transform="translate(-3, -3)" stroke-width="1.0067733990147782" stroke="#46BA00" d=" M0,193.5  L187,193.5  L339.5727528416437,219.23672701330895  L310.53961821052076,45.90457996182837  L353,27  L353,14  Q353,0,367,0  L609,0  Q626,0,626,14  L626,27  L668.4603817894792,45.90457996182837  L639.4239532821215,219.25639194605384  L792.5,193.5  L929.5,193.5  L929.5,312  L948.5,312  Q956.5,312,956.5,320  L956.5,340  Q956.5,348,948.5,348  L929.5,348  L929.5,466.5  L792.5,466.5  L639.4239532821215,440.74360805394616  L668.4603817894792,614.0954200381716  L626,633  L626,646  Q626,660,612,660  L370,660  Q353,660,353,646  L353,633  L310.53961821052076,614.0954200381716  L339.5727528416437,440.76327298669105  L187,466.5  L0,466.5  L0,199.5  Z " style="fill: url(&quot;#scienceImagePattern_traditional&quot;);"></path><g data-v-96261788=""><path data-v-96261788="" id="knifeFace_F" stroke-width="1.0067733990147782" fill="url(#scienceImagePattern_traditional)" d=" M386.5,227  L586.5,227  L586.5,427  L386.5,427  L386.5,227  Z "></path><path data-v-96261788="" id="knifeFace_R" stroke-width="1.0067733990147782" fill="url(#scienceImagePattern_traditional)" d=" M586.5,227  L789.5,193.5  L789.5,460.5  L586.5,427  L586.5,227  Z "></path><path data-v-96261788="" id="knifeFace_RR" stroke-width="1.0067733990147782" fill="url(#scienceImagePattern_traditional)" d=" M789.5,193.5  L923.5,193.5  L923.5,312  L945.5,312  Q950.5,312,950.5,317  L950.5,337  Q950.5,342,945.5,342  L923.5,342  L923.5,460.5  L789.5,460.5  L789.5,193.5  Z "></path><path data-v-96261788="" id="knifeFace_L" stroke-width="1.0067733990147782" fill="url(#scienceImagePattern_traditional)" d=" M386.5,227  L184,193.5  L184,460.5  L386.5,427  L386.5,227  Z "></path><path data-v-96261788="" id="knifeFace_LL" stroke-width="1.0067733990147782" fill="url(#scienceImagePattern_traditional)" d=" M184,193.5  L0,193.5  L0,460.5  L184,460.5  Z "></path><path data-v-96261788="" id="knifeFace_T" stroke-width="1.0067733990147782" fill="url(#scienceImagePattern_traditional)" d=" M386.5,227  L353,27  L620,27  L586.5,227  L386.5,227  Z "></path><path data-v-96261788="" id="knifeFace_TT" stroke-width="1.0067733990147782" fill="url(#scienceImagePattern_traditional)" d=" M353,27  L353,14  Q353,0,367,0  L606,0  Q620,0,620,14  L620,27  L353,27  Z "></path><path data-v-96261788="" id="knifeFace_TL" stroke-width="1.0067733990147782" fill="url(#scienceImagePattern_traditional)" d=" M353,27  L310.53961821052076,45.90457996182837  L339.5727528416437,219.23672701330895  L386.5,227  L353,27  Z "></path><path data-v-96261788="" id="knifeFace_TR" stroke-width="1.0067733990147782" fill="url(#scienceImagePattern_traditional)" d=" M620,27  L662.4603817894792,45.90457996182837  L633.4239532821215,219.25639194605384  L586.5,227  L620,27  Z "></path><path data-v-96261788="" id="knifeFace_B" stroke-width="1.0067733990147782" fill="url(#scienceImagePattern_traditional)" d=" M386.5,427  L353,627  L620,627  L586.5,427  L386.5,427  Z "></path><path data-v-96261788="" id="knifeFace_BB" stroke-width="1.0067733990147782" fill="url(#scienceImagePattern_traditional)" d=" M353,627  L353,640  Q353,654,367,654  L606,654  Q620,654,620,640  L620,627  L353,627  Z "></path><path data-v-96261788="" id="knifeFace_BL" stroke-width="1.0067733990147782" fill="url(#scienceImagePattern_traditional)" d=" M353,627  L310.53961821052076,608.0954200381716  L339.5727528416437,434.76327298669105  L386.5,427  L353,627  Z "></path><path data-v-96261788="" id="knifeFace_BR" stroke-width="1.0067733990147782" fill="url(#scienceImagePattern_traditional)" d=" M620,627  L662.4603817894792,608.0954200381716  L633.4239532821215,434.74360805394616  L586.5,427  L620,627  Z "></path></g><g data-v-96261788=""><path data-v-96261788="" stroke-width="1.0067733990147782" stroke="#2028B0" fill="none" d=" M0,193.5  L184,193.5  L339.5727528416437,219.23672701330895  L310.53961821052076,45.90457996182837  L353,27  L353,14  Q353,0,367,0  L606,0  Q620,0,620,14  L620,27  L662.4603817894792,45.90457996182837  L633.4239532821215,219.25639194605384  L789.5,193.5  L923.5,193.5  L923.5,312  L945.5,312  Q950.5,312,950.5,317  L950.5,337  Q950.5,342,945.5,342  L923.5,342  L923.5,460.5  L789.5,460.5  L633.4239532821215,434.74360805394616  L662.4603817894792,608.0954200381716  L620,627  L620,640  Q620,654,606,654  L367,654  Q353,654,353,640  L353,627  L310.53961821052076,608.0954200381716  L339.5727528416437,434.76327298669105  L184,460.5  L0,460.5  L0,193.5  Z  M386.5,227  L339.5727528416437,219.23672701330895  M586.5,227  L633.4239532821215,219.25639194605384  M586.5,427  L633.4239532821215,434.74360805394616  M386.5,427  L339.5727528416437,434.76327298669105  M51.91421356237309,310.0857864376269  L50.5,311.5  L50.5,342.5  L51.91421356237309,343.9142135623731 "></path></g><g data-v-96261788=""><g data-v-96261788=""><line data-v-96261788="" stroke-width="1.0067733990147782" stroke="#FA0000" stroke-dasharray="0.7550800492610837 0.5033866995073891" x1="386.5" y1="227" x2="586.5" y2="227"></line><!----></g><g data-v-96261788=""><line data-v-96261788="" stroke-width="1.0067733990147782" stroke="#FA0000" stroke-dasharray="0.7550800492610837 0.5033866995073891" x1="586.5" y1="227" x2="586.5" y2="427"></line><!----></g><g data-v-96261788=""><line data-v-96261788="" stroke-width="1.0067733990147782" stroke="#FA0000" stroke-dasharray="0.7550800492610837 0.5033866995073891" x1="586.5" y1="427" x2="386.5" y2="427"></line><!----></g><g data-v-96261788=""><line data-v-96261788="" stroke-width="1.0067733990147782" stroke="#FA0000" stroke-dasharray="0.7550800492610837 0.5033866995073891" x1="386.5" y1="427" x2="386.5" y2="227"></line><!----></g><g data-v-96261788=""><line data-v-96261788="" stroke-width="1.0067733990147782" stroke="#FA0000" stroke-dasharray="0.7550800492610837 0.5033866995073891" x1="789.5" y1="193.5" x2="789.5" y2="460.5"></line><!----></g><g data-v-96261788=""><line data-v-96261788="" stroke-width="1.0067733990147782" stroke="#FA0000" stroke-dasharray="0.7550800492610837 0.5033866995073891" x1="184" y1="193.5" x2="184" y2="460.5"></line><!----></g><g data-v-96261788=""><line data-v-96261788="" stroke-width="1.0067733990147782" stroke="#FA0000" stroke-dasharray="0.7550800492610837 0.5033866995073891" x1="386.5" y1="227" x2="353" y2="27"></line><!----></g><g data-v-96261788=""><line data-v-96261788="" stroke-width="1.0067733990147782" stroke="#FA0000" stroke-dasharray="0.7550800492610837 0.5033866995073891" x1="353" y1="27" x2="620" y2="27"></line><!----></g><g data-v-96261788=""><line data-v-96261788="" stroke-width="1.0067733990147782" stroke="#FA0000" stroke-dasharray="0.7550800492610837 0.5033866995073891" x1="620" y1="27" x2="586.5" y2="227"></line><!----></g><g data-v-96261788=""><line data-v-96261788="" stroke-width="1.0067733990147782" stroke="#FA0000" stroke-dasharray="0.7550800492610837 0.5033866995073891" x1="386.5" y1="427" x2="353" y2="627"></line><!----></g><g data-v-96261788=""><line data-v-96261788="" stroke-width="1.0067733990147782" stroke="#FA0000" stroke-dasharray="0.7550800492610837 0.5033866995073891" x1="353" y1="627" x2="620" y2="627"></line><!----></g><g data-v-96261788=""><line data-v-96261788="" stroke-width="1.0067733990147782" stroke="#FA0000" stroke-dasharray="0.7550800492610837 0.5033866995073891" x1="620" y1="627" x2="586.5" y2="427"></line><!----></g></g><g data-v-96261788=""></g></svg>
