<svg xmlns="http://www.w3.org/2000/svg" xmlns:xlink="http://www.w3.org/1999/xlink" viewBox="0 0 345.48 91.29"><defs><style>.cls-1{fill:none;}.cls-2{clip-path:url(#clip-path);}.cls-3{fill:#040606;}</style><clipPath id="clip-path" transform="translate(-8.52 -8.55)"><rect class="cls-1" width="362.5" height="110.62"/></clipPath></defs><g id="Layer_2" data-name="Layer 2"><g id="Layer_1-2" data-name="Layer 1"><g id="JELA"><g class="cls-2"><path class="cls-3" d="M95.3,56.16v.24S95,99.55,49.65,99.55A45.67,45.67,0,0,1,8.52,73.88h8.57C19.52,84.6,25.65,93,34.68,96.17c16.69,5.9,47.39-10.87,47.39-39.4V8.55H95.29V56.16h0" transform="translate(-8.52 -8.55)"/></g><g class="cls-2"><polyline class="cls-3" points="115.86 1.25 115.86 45.31 176.42 45.31 176.42 46.08 115.86 46.08 115.86 90.14 176.42 90.14 176.42 90.92 102.65 90.92 102.65 0.48 115.85 0.48 115.85 0.5 176.4 0.5 176.4 1.25 115.86 1.25"/></g><g class="cls-2"><polyline class="cls-3" points="262.82 90.28 262.82 91.03 189.04 91.03 189.04 90.95 189.04 0.6 202.26 0.6 202.26 90.28 262.82 90.28"/></g><g class="cls-2"><path class="cls-3" d="M354,99.43H340.78l-6.68-20H290.74l-9.63,20.45-.68-.32L290.11,79v-.33h.15l25.5-54.19L310.65,9.08h13.22L354,99.43m-20.13-20.8L316.12,25.47l-25,53.16ZM317.34,54v0l0-.07Z" transform="translate(-8.52 -8.55)"/></g></g></g></g></svg>